<?xml version="1.0" encoding="UTF-8"?>
<!DOCTYPE svg PUBLIC "-//W3C//DTD SVG 1.1//EN" "http://www.w3.org/Graphics/SVG/1.1/DTD/svg11.dtd">
<!-- Creator: CorelDRAW -->
<svg xmlns="http://www.w3.org/2000/svg" xml:space="preserve" width="285.75mm" height="285.75mm" version="1.1" style="shape-rendering:geometricPrecision; text-rendering:geometricPrecision; image-rendering:optimizeQuality; fill-rule:evenodd; clip-rule:evenodd"
viewBox="0 0 28575 28575"
 xmlns:xlink="http://www.w3.org/1999/xlink"
 xmlns:xodm="http://www.corel.com/coreldraw/odm/2003">
 <defs>
  <style type="text/css">
   <![CDATA[
    .fil0 {fill:none}
    .fil2 {fill:white;fill-rule:nonzero}
    .fil1 {fill:white;fill-rule:nonzero}
   ]]>
  </style>
 </defs>
 <g id="Layer_x0020_1">
  <metadata id="CorelCorpID_0Corel-Layer"/>
  <rect class="fil0" x="-4.23" y="4.23" width="28575" height="28575"/>
  <g id="_2299018387424">
   <g>
    <path class="fil1" d="M11346.86 18660.35c-2408.7,0 -4368.03,-1959.96 -4368.03,-4368.66 0,-2408.69 1959.33,-4368.65 4368.03,-4368.65 2.89,0 5.52,0 8.16,0 1120.76,0 2199.1,434.01 3007.12,1210.23l424.13 -443.97c-922.42,-884.89 -2152.1,-1379.66 -3430.75,-1379.66 -2.38,0 -6.02,0 -8.49,0 -2747.26,0 -4981.47,2235.29 -4981.47,4982.1 0,2747.26 2235.08,4982.09 4981.47,4982.09 1376.14,0 2656.83,-547.87 3603.61,-1542.98l-445.48 -422.83c-829.78,872.04 -1951.46,1352.37 -3158.09,1352.37l-0.21 -0.04z"/>
    <path class="fil1" d="M11375.65 10908.14c1.42,0.05 3.47,0.05 4.73,0.05 868.56,0 1704.16,335.76 2331.16,936.39l423.71 -443.3c-739.81,-709.56 -1727.42,-1107.25 -2753.32,-1107.25 -1.97,0 -4.36,0 -6.32,0 -2203.7,0 -3997.66,1793.29 -3997.66,3997.66 0,2203.7 1792.87,3997.66 3997.66,3997.66 1103.61,0 2131.39,-439.82 2890.58,-1238.22l-444.64 -422.63c-642.19,675.33 -1511.18,1047.41 -2445.98,1047.41 -1865.85,0 -3384.01,-1518.16 -3384.01,-3384.01 0,-1865.85 1518.24,-3383.76 3384.09,-3383.76z"/>
   </g>
   <path class="fil2" d="M11527.5 15015.83c48.62,-22.34 94.62,-48.62 137.99,-78.85l0 -2.63 2.62 0c0,-1.31 0,-1.31 1.32,-1.31 14.45,-13.14 17.08,-36.8 1.31,-51.25l-137.98 -164.27c-10.52,-14.46 -32.86,-18.4 -47.31,-9.2 0,1.31 -1.32,1.31 -1.32,1.31 -210.26,141.93 -499.36,105.13 -666.26,-91.99 -180.04,-212.89 -155.07,-530.91 56.51,-710.94 168.21,-141.93 403.43,-156.39 582.16,-52.57 14.45,7.89 28.91,6.57 39.42,-2.63l173.47 -145.87c14.45,-13.14 17.08,-36.8 1.31,-53.88l-2.63 -2.63 -6.57 -3.94c-287.8,-206.32 -691.23,-198.44 -972.46,40.74 -335.11,282.54 -375.85,784.54 -91.99,1118.33 233.92,275.97 616.33,350.88 930.41,211.58zm1416.65 31.54c0,19.71 -15.77,36.8 -34.17,36.8l-218.14 0c-18.4,0 -34.17,-17.09 -34.17,-36.8l0 -611.08 -504.63 0 0 611.08c0,19.71 -14.46,36.8 -34.17,36.8l-215.52 0c-21.03,0 -36.8,-17.09 -36.8,-36.8l0 -1502.07c0,-23.65 15.77,-43.36 36.8,-43.36l215.52 0c19.71,0 34.17,19.71 34.17,43.36l0 603.2 504.63 0 0 -603.2c0,-23.65 15.77,-43.36 34.17,-43.36l218.14 0c18.4,0 34.17,19.71 34.17,43.36l0 1502.07zm1327.29 -21.03l-293.06 -519.09 -40.74 -69.65 -9.19 -15.77c266.77,-59.13 404.75,-256.25 404.75,-449.43 0,-127.47 -59.13,-248.37 -160.32,-332.48 -102.51,-89.36 -248.38,-135.35 -415.27,-135.35l-537.49 0c-19.71,0 -36.8,17.08 -36.8,35.48l0 145.87 18.4 32.85 0 1.32 244.43 431.04 -262.83 0 0 897.55c0,19.72 17.09,36.8 36.8,36.8l215.52 0c18.4,0 35.48,-17.08 35.48,-36.8l0 -611.08 137.99 0 38.11 69.65 314.08 555.89 3.94 5.26c5.26,9.2 17.09,17.08 30.23,17.08l245.74 0c21.03,0 35.49,-17.08 35.49,-38.11 0,-6.57 0,-11.83 -3.95,-17.08l-1.31 -3.95zm-533.55 -943.55l-164.27 -290.42 183.99 0c198.43,0 286.48,93.3 286.48,180.03 0,73.6 -65.71,155.07 -214.21,174.79 -17.08,1.31 -35.48,3.94 -53.88,3.94l-38.11 -68.34zm1469.21 1002.69c-436.29,0 -791.11,-354.82 -791.11,-791.12 0,-436.29 354.82,-791.11 791.11,-791.11 436.3,0 791.11,354.82 791.11,791.11 0,436.3 -354.81,791.12 -791.11,791.12zm0 -1295.74c-277.28,0 -503.32,227.34 -503.32,504.62 0,277.29 226.04,502.01 503.32,502.01 278.61,0 502.01,-224.72 502.01,-502.01 0,-277.28 -223.4,-504.62 -502.01,-504.62zm965.9 -285.17l601.88 601.88 601.88 -601.88 0 1544.11c0,19.72 -14.46,36.8 -35.48,36.8l-211.58 0c-19.71,0 -36.8,-17.08 -36.8,-36.8l0 -860.76 -318.02 318.02 -318.03 -318.02 0 860.76c0,19.72 -14.45,36.8 -35.48,36.8l-212.89 0c-18.4,0 -35.48,-17.08 -35.48,-36.8l0 -1544.11zm2243.24 933.03l-224.72 -898.87 -1.31 -9.2c-6.57,-13.14 -18.4,-22.34 -34.17,-22.34l-240.49 0c-14.45,0 -27.6,9.2 -32.85,22.34l-2.63 10.52 -373.21 1491.55c0,2.63 0,3.94 -1.31,3.94l0 7.89c0,22.34 15.77,38.11 34.15,38.11l223.41 0c14.46,0 28.91,-10.52 32.85,-24.97 0,-2.63 1.32,-3.94 1.32,-3.94l81.47 -329.86 72.28 -285.17 85.42 -340.35 85.42 340.35 70.97 285.17 81.47 327.23 1.32 6.57c6.57,14.45 18.4,24.97 34.17,24.97l222.09 0c19.71,0 35.48,-15.77 35.48,-38.11l0 -3.95 -2.63 -9.19 -77.53 -307.52 -70.97 -285.17zm1241.87 -896.24c0,3.94 0,7.89 -2.63,11.83l-377.16 1500.75c0,2.63 -1.32,3.94 -1.32,5.26 -3.94,15.77 -18.4,26.28 -32.85,26.28l-237.85 0c-15.77,0 -28.91,-10.51 -32.86,-27.6l-378.47 -1504.69c0,-2.63 -2.63,-2.63 -2.63,-3.94l0 -7.89c0,-21.02 17.08,-38.11 35.48,-38.11l222.09 0c17.09,0 30.23,10.51 35.48,27.6l0 3.94 239.17 956.69 240.49 -956.69 0 -3.94c5.26,-17.09 18.4,-27.6 35.48,-27.6l220.78 0c19.71,0 36.8,17.09 36.8,38.11zm1243.17 1048.68c0,153.76 -61.76,285.18 -178.72,377.17 -97.24,76.22 -223.4,118.27 -360.07,118.27 -136.67,0 -262.83,-42.05 -360.08,-118.27 -116.96,-91.99 -178.72,-223.41 -178.72,-377.17l0 -1048.68c0,-19.71 15.77,-38.11 36.8,-38.11l215.52 0c19.71,0 34.16,18.4 34.16,38.11l0 1048.68c0,201.07 226.04,208.96 252.32,208.96 26.28,0 252.32,-7.89 252.32,-208.96l0 -1048.68c0,-19.71 15.77,-38.11 34.17,-38.11l218.14 0c18.39,0 34.16,18.4 34.16,38.11l0 1048.68zm1299.7 458.64c0,19.72 -17.08,36.8 -35.48,36.8l-1006.64 0c-19.72,0 -36.8,-17.08 -36.8,-36.8l0 -1508.63c0,-19.71 17.08,-36.8 36.8,-36.8l969.84 0c19.71,0 36.8,17.09 36.8,36.8l0 215.52c0,19.71 -17.09,34.17 -36.8,34.17l-718.84 0 0 361.39 682.04 0c19.72,0 36.8,14.45 36.8,34.17l0 215.51c0,21.02 -17.08,36.79 -36.8,36.79l-682.04 0 0 358.77 755.64 0c18.4,0 35.48,17.08 35.48,36.79l0 215.52z"/>
  </g>
 </g>
</svg>
